G04*
G04 #@! TF.GenerationSoftware,Altium Limited,Altium Designer,24.7.2 (38)*
G04*
G04 Layer_Physical_Order=2*
G04 Layer_Color=16711680*
%FSLAX44Y44*%
%MOMM*%
G71*
G04*
G04 #@! TF.SameCoordinates,8E014E6F-3DA1-407A-8F63-97A6F4F725C9*
G04*
G04*
G04 #@! TF.FilePolarity,Positive*
G04*
G01*
G75*
%ADD17C,1.4000*%
%ADD18R,1.4000X1.4000*%
%ADD22C,2.0000*%
%ADD23C,1.5240*%
%ADD24C,1.9500*%
G04:AMPARAMS|DCode=25|XSize=1.95mm|YSize=1.95mm|CornerRadius=0.4875mm|HoleSize=0mm|Usage=FLASHONLY|Rotation=0.000|XOffset=0mm|YOffset=0mm|HoleType=Round|Shape=RoundedRectangle|*
%AMROUNDEDRECTD25*
21,1,1.9500,0.9750,0,0,0.0*
21,1,0.9750,1.9500,0,0,0.0*
1,1,0.9750,0.4875,-0.4875*
1,1,0.9750,-0.4875,-0.4875*
1,1,0.9750,-0.4875,0.4875*
1,1,0.9750,0.4875,0.4875*
%
%ADD25ROUNDEDRECTD25*%
%ADD26R,1.8000X1.8000*%
%ADD27C,1.8000*%
%ADD28R,1.8000X1.8000*%
D17*
X271900Y-338500D02*
D03*
Y-287700D02*
D03*
Y-211500D02*
D03*
X348100D02*
D03*
X601900Y-338500D02*
D03*
Y-287700D02*
D03*
Y-211500D02*
D03*
X678100D02*
D03*
D18*
X348100Y-338500D02*
D03*
X678100D02*
D03*
D22*
X359600Y-150000D02*
Y-100800D01*
Y-175000D02*
Y-150000D01*
X110400Y-149200D02*
X358800D01*
X359600Y-150000D01*
X231900Y-251500D02*
X271900Y-211500D01*
X231900Y-358816D02*
Y-251500D01*
Y-358816D02*
X240400Y-367316D01*
Y-455000D02*
Y-367316D01*
X449600Y-460769D02*
Y-455000D01*
Y-460769D02*
X488831Y-500000D01*
X330400Y-471569D02*
Y-465800D01*
X353831Y-495000D02*
X409600D01*
X449600Y-455000D01*
X319600D02*
X330400Y-465800D01*
Y-471569D02*
X353831Y-495000D01*
X370400Y-455000D02*
X410400Y-415000D01*
X470026D02*
X500400Y-445374D01*
Y-455000D02*
Y-445374D01*
X410400Y-415000D02*
X470026D01*
X359600Y-200000D02*
Y-175000D01*
X363100Y-171500D02*
X638100D01*
X678100Y-211500D01*
X359600Y-175000D02*
X363100Y-171500D01*
X271900Y-287700D02*
X525700D01*
X601900Y-211500D01*
X35000Y-220246D02*
X70646Y-184600D01*
X35000Y-409068D02*
Y-220246D01*
X70646Y-184600D02*
X75000D01*
X35000Y-409068D02*
X59600Y-433669D01*
Y-455000D02*
Y-433669D01*
X75000Y-392500D02*
X110400Y-427900D01*
X75000Y-392500D02*
Y-365400D01*
X110400Y-455000D02*
X150400Y-495000D01*
X110400Y-455000D02*
Y-427900D01*
X279600Y-495000D02*
X319600Y-455000D01*
X150400Y-495000D02*
X279600D01*
X794600Y-500000D02*
X839600Y-455000D01*
X488831Y-500000D02*
X794600D01*
X774174Y-460000D02*
X819174Y-415000D01*
X760000Y-460000D02*
X774174D01*
X869174Y-415000D02*
X890400Y-436226D01*
X835000Y-380826D02*
X869174Y-415000D01*
X819174D02*
X869174D01*
X930400Y-471569D02*
Y-415800D01*
X850400Y-471569D02*
Y-465800D01*
X873831Y-495000D02*
X906969D01*
X850400Y-471569D02*
X873831Y-495000D01*
X839600Y-455000D02*
X850400Y-465800D01*
X890400Y-455000D02*
Y-436226D01*
X835000Y-380826D02*
Y-339974D01*
X854574Y-320400D01*
X864200D01*
X875000Y-309600D01*
Y-360400D02*
X930400Y-415800D01*
X875000Y-360400D02*
X880769D01*
X915000Y-326169D01*
X835000Y-269600D02*
X875000Y-309600D01*
X835000Y-269600D02*
Y-209974D01*
X854574Y-190400D01*
X864200D01*
X875000Y-179600D01*
X880769Y-230400D02*
X915000Y-196168D01*
X890400Y-90000D02*
X915000Y-114600D01*
X875000Y-230400D02*
X880769D01*
X915000Y-196168D02*
Y-114600D01*
X875000Y-230400D02*
X915000Y-270400D01*
Y-326169D02*
Y-270400D01*
X906969Y-495000D02*
X930400Y-471569D01*
X839600Y-144200D02*
X875000Y-179600D01*
X839600Y-144200D02*
Y-90000D01*
X540600Y-51000D02*
X579600Y-90000D01*
X478974Y-51000D02*
X540600D01*
X461400Y-68574D02*
X478974Y-51000D01*
X461400Y-78200D02*
Y-68574D01*
X449600Y-90000D02*
X461400Y-78200D01*
X409600Y-50000D02*
X449600Y-90000D01*
X349974Y-50000D02*
X409600D01*
X319600Y-80374D02*
X349974Y-50000D01*
X319600Y-90000D02*
Y-80374D01*
X149600Y-50000D02*
X189600Y-90000D01*
X70400Y-69574D02*
X89974Y-50000D01*
X70400Y-79200D02*
Y-69574D01*
X89974Y-50000D02*
X149600D01*
X59600Y-90000D02*
X70400Y-79200D01*
X348100Y-211500D02*
X359600Y-200000D01*
Y-100800D02*
X370400Y-90000D01*
X91568Y-325400D02*
X189600Y-423431D01*
Y-455000D02*
Y-423431D01*
X75000Y-314600D02*
X85800Y-325400D01*
X91568D01*
X710000Y-460000D02*
Y-370400D01*
X678100Y-338500D02*
X710000Y-370400D01*
X760400Y-90000D02*
X839600D01*
X630400D02*
X709600D01*
X240400D02*
X319600D01*
X75000Y-184600D02*
X110400Y-149200D01*
Y-90000D01*
D23*
X780000Y-360000D02*
D03*
X170000Y-190000D02*
D03*
D24*
X710000Y-460000D02*
D03*
X760000D02*
D03*
D25*
X660000D02*
D03*
D26*
X75000Y-184600D02*
D03*
Y-314600D02*
D03*
X875000Y-360400D02*
D03*
Y-230400D02*
D03*
D27*
X75000Y-235400D02*
D03*
Y-365400D02*
D03*
X110400Y-455000D02*
D03*
X240400D02*
D03*
X370400D02*
D03*
X500400D02*
D03*
X890400D02*
D03*
X875000Y-309600D02*
D03*
Y-179600D02*
D03*
X839600Y-90000D02*
D03*
X709600D02*
D03*
X579600D02*
D03*
X449600D02*
D03*
X319600D02*
D03*
X189600D02*
D03*
X59600D02*
D03*
D28*
Y-455000D02*
D03*
X189600D02*
D03*
X319600D02*
D03*
X449600D02*
D03*
X839600D02*
D03*
X890400Y-90000D02*
D03*
X760400D02*
D03*
X630400D02*
D03*
X500400D02*
D03*
X370400D02*
D03*
X240400D02*
D03*
X110400D02*
D03*
M02*
