G04*
G04 #@! TF.GenerationSoftware,Altium Limited,Altium Designer,24.7.2 (38)*
G04*
G04 Layer_Color=65535*
%FSLAX44Y44*%
%MOMM*%
G71*
G04*
G04 #@! TF.SameCoordinates,8E014E6F-3DA1-407A-8F63-97A6F4F725C9*
G04*
G04*
G04 #@! TF.FilePolarity,Positive*
G04*
G01*
G75*
%ADD10C,0.2500*%
%ADD11C,0.2000*%
%ADD12C,0.2540*%
D10*
X581250Y-466750D02*
G03*
X581250Y-466750I-1250J0D01*
G01*
X374100Y-339500D02*
G03*
X374100Y-339500I-1250J0D01*
G01*
X704100D02*
G03*
X704100Y-339500I-1250J0D01*
G01*
D11*
X635001Y-469001D02*
Y-418001D01*
X785000D01*
X635001Y-493000D02*
Y-476001D01*
X629001Y-476750D02*
X635001Y-476001D01*
X629001Y-468251D02*
X635001Y-469001D01*
X629001Y-476750D02*
Y-468251D01*
X635001Y-493000D02*
X785000Y-493001D01*
X791000Y-436501D02*
Y-427001D01*
X785000Y-427501D02*
X791000Y-427001D01*
X785000Y-436001D02*
X791000Y-436501D01*
X785000Y-427501D02*
Y-418001D01*
Y-493001D02*
Y-436001D01*
X589000Y-444750D02*
Y-435250D01*
X571000Y-444750D02*
Y-435250D01*
X259000Y-351500D02*
X361000D01*
Y-198500D01*
X259000D02*
X361000D01*
X259000Y-351500D02*
Y-198500D01*
X589000Y-351500D02*
X691000D01*
Y-198500D01*
X589000D02*
X691000D01*
X589000Y-351500D02*
Y-198500D01*
X34499Y-260799D02*
X115498D01*
X34499Y-159199D02*
X115499D01*
X34499Y-260799D02*
Y-159199D01*
X115498Y-260799D02*
Y-159200D01*
X34499Y-390799D02*
X115498D01*
X34499Y-289199D02*
X115499D01*
X34499Y-390799D02*
Y-289199D01*
X115498Y-390799D02*
Y-289200D01*
X135799Y-495501D02*
Y-414502D01*
X34199Y-495501D02*
Y-414501D01*
Y-495501D02*
X135799D01*
X34200Y-414502D02*
X135799D01*
X265799Y-495501D02*
Y-414502D01*
X164199Y-495501D02*
Y-414501D01*
Y-495501D02*
X265799D01*
X164200Y-414502D02*
X265799D01*
X395799Y-495501D02*
Y-414502D01*
X294199Y-495501D02*
Y-414501D01*
Y-495501D02*
X395799D01*
X294200Y-414502D02*
X395799D01*
X525799Y-495501D02*
Y-414502D01*
X424199Y-495501D02*
Y-414501D01*
Y-495501D02*
X525799D01*
X424200Y-414502D02*
X525799D01*
X915799Y-495501D02*
Y-414502D01*
X814199Y-495501D02*
Y-414501D01*
Y-495501D02*
X915799D01*
X814200Y-414502D02*
X915799D01*
X834502Y-284201D02*
X915501D01*
X834501Y-385801D02*
X915501D01*
Y-284201D01*
X834502Y-385800D02*
Y-284201D01*
Y-154201D02*
X915501D01*
X834501Y-255801D02*
X915501D01*
Y-154201D01*
X834502Y-255800D02*
Y-154201D01*
X814201Y-130498D02*
Y-49499D01*
X915801Y-130499D02*
Y-49499D01*
X814201D02*
X915801D01*
X814201Y-130498D02*
X915800D01*
X684201D02*
Y-49499D01*
X785801Y-130499D02*
Y-49499D01*
X684201D02*
X785801D01*
X684201Y-130498D02*
X785800D01*
X554201D02*
Y-49499D01*
X655801Y-130499D02*
Y-49499D01*
X554201D02*
X655801D01*
X554201Y-130498D02*
X655800D01*
X424201D02*
Y-49499D01*
X525801Y-130499D02*
Y-49499D01*
X424201D02*
X525801D01*
X424201Y-130498D02*
X525800D01*
X294201D02*
Y-49499D01*
X395801Y-130499D02*
Y-49499D01*
X294201D02*
X395801D01*
X294201Y-130498D02*
X395800D01*
X164201D02*
Y-49499D01*
X265801Y-130499D02*
Y-49499D01*
X164201D02*
X265801D01*
X164201Y-130498D02*
X265800D01*
X34201D02*
Y-49499D01*
X135801Y-130499D02*
Y-49499D01*
X34201D02*
X135801D01*
X34201Y-130498D02*
X135800D01*
D12*
X662540Y-547460D02*
Y-532225D01*
X670157D01*
X672697Y-534764D01*
Y-539842D01*
X670157Y-542382D01*
X662540D01*
X667618D02*
X672697Y-547460D01*
X718402Y-532225D02*
X708245D01*
Y-539842D01*
X713324D01*
X708245D01*
Y-547460D01*
X753950D02*
Y-532225D01*
X761568D01*
X764107Y-534764D01*
Y-539842D01*
X761568Y-542382D01*
X753950D01*
X382460Y-535158D02*
X372303D01*
X377382Y-540236D02*
Y-530079D01*
X321520Y-535158D02*
X311363D01*
X512460D02*
X502303D01*
X507382Y-540236D02*
Y-530079D01*
X451520Y-535158D02*
X441363D01*
X955157Y-297540D02*
Y-307697D01*
X960236Y-302618D02*
X950079D01*
X955157Y-358480D02*
Y-368637D01*
Y-167540D02*
Y-177697D01*
X960236Y-172618D02*
X950079D01*
X955157Y-228480D02*
Y-238637D01*
X827540Y-9843D02*
X837697D01*
X832618Y-4764D02*
Y-14921D01*
X888480Y-9843D02*
X898637D01*
X437540D02*
X447697D01*
X442618Y-4764D02*
Y-14921D01*
X498480Y-9843D02*
X508637D01*
X307540D02*
X317697D01*
X312618Y-4764D02*
Y-14921D01*
X368480Y-9843D02*
X378637D01*
X47540D02*
X57697D01*
X52618Y-4764D02*
Y-14921D01*
X108480Y-9843D02*
X118637D01*
X942617Y-177069D02*
Y-187226D01*
Y-182147D01*
X927383D01*
X940078Y-202461D02*
X942617Y-199922D01*
Y-194843D01*
X940078Y-192304D01*
X937539D01*
X935000Y-194843D01*
Y-199922D01*
X932461Y-202461D01*
X929922D01*
X927383Y-199922D01*
Y-194843D01*
X929922Y-192304D01*
X927383Y-207539D02*
X937539D01*
X942617Y-212617D01*
X937539Y-217696D01*
X927383D01*
X935000D01*
Y-207539D01*
X942617Y-222774D02*
X927383D01*
Y-232931D01*
X160408Y-507383D02*
X170564D01*
X165486D01*
Y-522617D01*
X175643Y-507383D02*
Y-522617D01*
Y-515000D01*
X178182Y-512461D01*
X183260D01*
X185800Y-515000D01*
Y-522617D01*
X190878Y-512461D02*
Y-522617D01*
Y-517539D01*
X193417Y-515000D01*
X195956Y-512461D01*
X198495D01*
X208652Y-522617D02*
X213730D01*
X216270Y-520078D01*
Y-515000D01*
X213730Y-512461D01*
X208652D01*
X206113Y-515000D01*
Y-520078D01*
X208652Y-522617D01*
X223887Y-509922D02*
Y-512461D01*
X221348D01*
X226426D01*
X223887D01*
Y-520078D01*
X226426Y-522617D01*
X236583Y-509922D02*
Y-512461D01*
X234044D01*
X239122D01*
X236583D01*
Y-520078D01*
X239122Y-522617D01*
X246740D02*
X251818D01*
X249279D01*
Y-507383D01*
X246740D01*
X267053Y-522617D02*
X261975D01*
X259436Y-520078D01*
Y-515000D01*
X261975Y-512461D01*
X267053D01*
X269592Y-515000D01*
Y-517539D01*
X259436D01*
X927383Y-307069D02*
X942617D01*
Y-314687D01*
X940078Y-317226D01*
X935000D01*
X932461Y-314687D01*
Y-307069D01*
Y-312147D02*
X927383Y-317226D01*
X942617Y-322304D02*
Y-332461D01*
Y-327383D01*
X927383D01*
X942617Y-337539D02*
X927383D01*
Y-345157D01*
X929922Y-347696D01*
X940078D01*
X942617Y-345157D01*
Y-337539D01*
X940078Y-362931D02*
X942617Y-360392D01*
Y-355313D01*
X940078Y-352774D01*
X937539D01*
X935000Y-355313D01*
Y-360392D01*
X932461Y-362931D01*
X929922D01*
X927383Y-360392D01*
Y-355313D01*
X929922Y-352774D01*
X462304Y-522617D02*
Y-507383D01*
X469922D01*
X472461Y-509922D01*
Y-515000D01*
X469922Y-517539D01*
X462304D01*
X467383D02*
X472461Y-522617D01*
X477539Y-507383D02*
Y-522617D01*
X487696D01*
X332304D02*
Y-507383D01*
X339922D01*
X342461Y-509922D01*
Y-515000D01*
X339922Y-517539D01*
X332304D01*
X337383D02*
X342461Y-522617D01*
X347539D02*
Y-512461D01*
X352617Y-507383D01*
X357696Y-512461D01*
Y-522617D01*
Y-515000D01*
X347539D01*
X7383Y-312069D02*
X22618D01*
Y-319687D01*
X20078Y-322226D01*
X15000D01*
X12461Y-319687D01*
Y-312069D01*
X17539Y-327304D02*
X9922D01*
X7383Y-329843D01*
Y-337461D01*
X17539D01*
X7383Y-342539D02*
Y-350157D01*
X9922Y-352696D01*
X12461Y-350157D01*
Y-345078D01*
X15000Y-342539D01*
X17539Y-345078D01*
Y-352696D01*
X22618Y-357774D02*
X7383D01*
X15000D01*
X17539Y-360313D01*
Y-365392D01*
X15000Y-367931D01*
X7383D01*
X50721Y-37617D02*
Y-22383D01*
X58339D01*
X60878Y-24922D01*
Y-30000D01*
X58339Y-32539D01*
X50721D01*
X68495Y-37617D02*
X73574D01*
X76113Y-35078D01*
Y-30000D01*
X73574Y-27461D01*
X68495D01*
X65956Y-30000D01*
Y-35078D01*
X68495Y-37617D01*
X81191Y-27461D02*
Y-35078D01*
X83730Y-37617D01*
X86270Y-35078D01*
X88809Y-37617D01*
X91348Y-35078D01*
Y-27461D01*
X104044Y-37617D02*
X98966D01*
X96426Y-35078D01*
Y-30000D01*
X98966Y-27461D01*
X104044D01*
X106583Y-30000D01*
Y-32539D01*
X96426D01*
X111661Y-27461D02*
Y-37617D01*
Y-32539D01*
X114201Y-30000D01*
X116740Y-27461D01*
X119279D01*
X174373Y-37617D02*
Y-22383D01*
X179452Y-27461D01*
X184530Y-22383D01*
Y-37617D01*
X192147Y-27461D02*
X197226D01*
X199765Y-30000D01*
Y-37617D01*
X192147D01*
X189608Y-35078D01*
X192147Y-32539D01*
X199765D01*
X204843Y-37617D02*
X212461D01*
X215000Y-35078D01*
X212461Y-32539D01*
X207383D01*
X204843Y-30000D01*
X207383Y-27461D01*
X215000D01*
X222618Y-24922D02*
Y-27461D01*
X220078D01*
X225157D01*
X222618D01*
Y-35078D01*
X225157Y-37617D01*
X240392D02*
X235313D01*
X232774Y-35078D01*
Y-30000D01*
X235313Y-27461D01*
X240392D01*
X242931Y-30000D01*
Y-32539D01*
X232774D01*
X248009Y-27461D02*
Y-37617D01*
Y-32539D01*
X250548Y-30000D01*
X253088Y-27461D01*
X255627D01*
X301834Y-22383D02*
Y-37617D01*
X311991D01*
X317069Y-22383D02*
Y-32539D01*
X322147Y-37617D01*
X327226Y-32539D01*
Y-22383D01*
X347539D02*
Y-37617D01*
X357696D01*
X372931Y-22383D02*
X362774D01*
Y-37617D01*
X372931D01*
X362774Y-30000D02*
X367853D01*
X378009Y-22383D02*
Y-37617D01*
X385627D01*
X388166Y-35078D01*
Y-24922D01*
X385627Y-22383D01*
X378009D01*
X695643D02*
Y-37617D01*
Y-32539D01*
X705799Y-22383D01*
X698182Y-30000D01*
X705799Y-37617D01*
X710878D02*
X715956D01*
X713417D01*
Y-27461D01*
X710878D01*
X723574Y-37617D02*
X728652D01*
X726113D01*
Y-22383D01*
X723574D01*
X736270Y-37617D02*
X741348D01*
X738809D01*
Y-22383D01*
X736270D01*
X774357Y-37617D02*
X764201D01*
X774357Y-27461D01*
Y-24922D01*
X771818Y-22383D01*
X766740D01*
X764201Y-24922D01*
X568182Y-22383D02*
Y-37617D01*
Y-32539D01*
X578339Y-22383D01*
X570721Y-30000D01*
X578339Y-37617D01*
X583417D02*
X588495D01*
X585956D01*
Y-27461D01*
X583417D01*
X596113Y-37617D02*
X601191D01*
X598652D01*
Y-22383D01*
X596113D01*
X608809Y-37617D02*
X613887D01*
X611348D01*
Y-22383D01*
X608809D01*
X636740Y-37617D02*
X641818D01*
X639279D01*
Y-22383D01*
X636740Y-24922D01*
X529843Y-360062D02*
Y-370219D01*
X537461D01*
Y-365141D01*
Y-370219D01*
X545078D01*
Y-352445D02*
Y-347367D01*
X542539Y-344827D01*
X537461D01*
X534922Y-347367D01*
Y-352445D01*
X537461Y-354984D01*
X542539D01*
X545078Y-352445D01*
X534922Y-339749D02*
X545078D01*
X540000D01*
X537461Y-337210D01*
X534922Y-334671D01*
Y-332132D01*
Y-324514D02*
X542539D01*
X545078Y-321975D01*
X542539Y-319436D01*
X545078Y-316896D01*
X542539Y-314357D01*
X534922D01*
Y-306740D02*
Y-301661D01*
X537461Y-299122D01*
X545078D01*
Y-306740D01*
X542539Y-309279D01*
X540000Y-306740D01*
Y-299122D01*
X534922Y-294044D02*
X545078D01*
X540000D01*
X537461Y-291505D01*
X534922Y-288965D01*
Y-286426D01*
X529843Y-268652D02*
X545078D01*
Y-276270D01*
X542539Y-278809D01*
X537461D01*
X534922Y-276270D01*
Y-268652D01*
X545078Y-248339D02*
X529843D01*
Y-240721D01*
X532383Y-238182D01*
X537461D01*
X540000Y-240721D01*
Y-248339D01*
Y-243260D02*
X545078Y-238182D01*
Y-225486D02*
Y-230564D01*
X542539Y-233104D01*
X537461D01*
X534922Y-230564D01*
Y-225486D01*
X537461Y-222947D01*
X540000D01*
Y-233104D01*
X545078Y-217868D02*
Y-212790D01*
Y-215329D01*
X529843D01*
Y-217868D01*
X534922Y-202633D02*
Y-197555D01*
X537461Y-195016D01*
X545078D01*
Y-202633D01*
X542539Y-205173D01*
X540000Y-202633D01*
Y-195016D01*
X534922Y-189937D02*
X542539D01*
X545078Y-187398D01*
Y-179781D01*
X547617D01*
X550157Y-182320D01*
Y-184859D01*
X545078Y-179781D02*
X534922D01*
X215078Y-385219D02*
X199843D01*
Y-377602D01*
X202383Y-375062D01*
X207461D01*
X210000Y-377602D01*
Y-385219D01*
Y-380141D02*
X215078Y-375062D01*
Y-362367D02*
Y-367445D01*
X212539Y-369984D01*
X207461D01*
X204922Y-367445D01*
Y-362367D01*
X207461Y-359827D01*
X210000D01*
Y-369984D01*
X204922Y-354749D02*
X215078Y-349671D01*
X204922Y-344592D01*
X215078Y-331897D02*
Y-336975D01*
X212539Y-339514D01*
X207461D01*
X204922Y-336975D01*
Y-331897D01*
X207461Y-329357D01*
X210000D01*
Y-339514D01*
X204922Y-324279D02*
X215078D01*
X210000D01*
X207461Y-321740D01*
X204922Y-319201D01*
Y-316661D01*
X215078Y-309044D02*
Y-301426D01*
X212539Y-298887D01*
X210000Y-301426D01*
Y-306505D01*
X207461Y-309044D01*
X204922Y-306505D01*
Y-298887D01*
X215078Y-286191D02*
Y-291270D01*
X212539Y-293809D01*
X207461D01*
X204922Y-291270D01*
Y-286191D01*
X207461Y-283652D01*
X210000D01*
Y-293809D01*
X215078Y-263339D02*
X199843D01*
Y-255721D01*
X202383Y-253182D01*
X207461D01*
X210000Y-255721D01*
Y-263339D01*
Y-258260D02*
X215078Y-253182D01*
Y-240486D02*
Y-245564D01*
X212539Y-248104D01*
X207461D01*
X204922Y-245564D01*
Y-240486D01*
X207461Y-237947D01*
X210000D01*
Y-248104D01*
X215078Y-232868D02*
Y-227790D01*
Y-230329D01*
X199843D01*
Y-232868D01*
X204922Y-217633D02*
Y-212555D01*
X207461Y-210016D01*
X215078D01*
Y-217633D01*
X212539Y-220173D01*
X210000Y-217633D01*
Y-210016D01*
X204922Y-204937D02*
X212539D01*
X215078Y-202398D01*
Y-194781D01*
X217617D01*
X220157Y-197320D01*
Y-199859D01*
X215078Y-194781D02*
X204922D01*
X821834Y-22383D02*
Y-37617D01*
Y-30000D01*
X831991D01*
Y-22383D01*
Y-37617D01*
X837069Y-22383D02*
Y-32539D01*
X842147Y-37617D01*
X847226Y-32539D01*
Y-22383D01*
X867539D02*
Y-37617D01*
X877696D01*
X892931Y-22383D02*
X882774D01*
Y-37617D01*
X892931D01*
X882774Y-30000D02*
X887853D01*
X898009Y-22383D02*
Y-37617D01*
X905627D01*
X908166Y-35078D01*
Y-24922D01*
X905627Y-22383D01*
X898009D01*
X699843Y-507383D02*
X689687D01*
Y-515000D01*
X694765D01*
X689687D01*
Y-522617D01*
X704922D02*
Y-507383D01*
X715078Y-522617D01*
Y-507383D01*
X720157Y-522617D02*
Y-507383D01*
X727774D01*
X730313Y-509922D01*
Y-515000D01*
X727774Y-517539D01*
X720157D01*
X725235D02*
X730313Y-522617D01*
X545721Y-512383D02*
Y-527618D01*
X553339D01*
X555878Y-525078D01*
Y-514922D01*
X553339Y-512383D01*
X545721D01*
X560956Y-527618D02*
X566035D01*
X563495D01*
Y-517461D01*
X560956D01*
X576191Y-527618D02*
X581270D01*
X583809Y-525078D01*
Y-520000D01*
X581270Y-517461D01*
X576191D01*
X573652Y-520000D01*
Y-525078D01*
X576191Y-527618D01*
X599044Y-512383D02*
Y-527618D01*
X591426D01*
X588887Y-525078D01*
Y-520000D01*
X591426Y-517461D01*
X599044D01*
X611740Y-527618D02*
X606661D01*
X604122Y-525078D01*
Y-520000D01*
X606661Y-517461D01*
X611740D01*
X614279Y-520000D01*
Y-522539D01*
X604122D01*
X22617Y-197304D02*
X7383D01*
Y-204922D01*
X9922Y-207461D01*
X12461D01*
X15000Y-204922D01*
Y-197304D01*
Y-204922D01*
X17539Y-207461D01*
X20078D01*
X22617Y-204922D01*
Y-197304D01*
X20078Y-222696D02*
X22617Y-220157D01*
Y-215078D01*
X20078Y-212539D01*
X17539D01*
X15000Y-215078D01*
Y-220157D01*
X12461Y-222696D01*
X9922D01*
X7383Y-220157D01*
Y-215078D01*
X9922Y-212539D01*
X462304Y-22383D02*
Y-37617D01*
X469922D01*
X472461Y-35078D01*
Y-32539D01*
X469922Y-30000D01*
X462304D01*
X469922D01*
X472461Y-27461D01*
Y-24922D01*
X469922Y-22383D01*
X462304D01*
X477539D02*
Y-37617D01*
X487696D01*
X837069Y-507383D02*
X847226D01*
Y-509922D01*
X837069Y-520078D01*
Y-522617D01*
X892931D02*
X882774D01*
X892931Y-512461D01*
Y-509922D01*
X890392Y-507383D01*
X885313D01*
X882774Y-509922D01*
X65956Y-522617D02*
X71034D01*
X68495D01*
Y-507383D01*
X65956Y-509922D01*
X93887D02*
X96426Y-507383D01*
X101505D01*
X104044Y-509922D01*
Y-512461D01*
X101505Y-515000D01*
X98966D01*
X101505D01*
X104044Y-517539D01*
Y-520078D01*
X101505Y-522617D01*
X96426D01*
X93887Y-520078D01*
M02*
