G04*
G04 #@! TF.GenerationSoftware,Altium Limited,Altium Designer,24.7.2 (38)*
G04*
G04 Layer_Physical_Order=1*
G04 Layer_Color=255*
%FSLAX44Y44*%
%MOMM*%
G71*
G04*
G04 #@! TF.SameCoordinates,8E014E6F-3DA1-407A-8F63-97A6F4F725C9*
G04*
G04*
G04 #@! TF.FilePolarity,Positive*
G04*
G01*
G75*
%ADD13R,1.2200X1.2500*%
%ADD17C,1.4000*%
%ADD18R,1.4000X1.4000*%
%ADD22C,2.0000*%
%ADD23C,1.5240*%
%ADD24C,1.9500*%
G04:AMPARAMS|DCode=25|XSize=1.95mm|YSize=1.95mm|CornerRadius=0.4875mm|HoleSize=0mm|Usage=FLASHONLY|Rotation=0.000|XOffset=0mm|YOffset=0mm|HoleType=Round|Shape=RoundedRectangle|*
%AMROUNDEDRECTD25*
21,1,1.9500,0.9750,0,0,0.0*
21,1,0.9750,1.9500,0,0,0.0*
1,1,0.9750,0.4875,-0.4875*
1,1,0.9750,-0.4875,-0.4875*
1,1,0.9750,-0.4875,0.4875*
1,1,0.9750,0.4875,0.4875*
%
%ADD25ROUNDEDRECTD25*%
%ADD26R,1.8000X1.8000*%
%ADD27C,1.8000*%
%ADD28R,1.8000X1.8000*%
D13*
X580000Y-425250D02*
D03*
Y-454750D02*
D03*
D17*
X271900Y-338500D02*
D03*
Y-287700D02*
D03*
Y-211500D02*
D03*
X348100D02*
D03*
X601900Y-338500D02*
D03*
Y-287700D02*
D03*
Y-211500D02*
D03*
X678100D02*
D03*
D18*
X348100Y-338500D02*
D03*
X678100D02*
D03*
D22*
X570000Y-420000D02*
X620000D01*
X660000Y-460000D01*
X488500Y-338500D02*
X570000Y-420000D01*
X348100Y-338500D02*
X488500D01*
X500400Y-455000D02*
X579750D01*
X580000Y-454750D01*
X500400Y-175000D02*
Y-90000D01*
Y-186200D02*
Y-175000D01*
X499900Y-174500D02*
X500400Y-175000D01*
X75000Y-235400D02*
X195674D01*
X256574Y-174500D01*
X499900D01*
X500400Y-186200D02*
X601900Y-287700D01*
D23*
X780000Y-360000D02*
D03*
X170000Y-190000D02*
D03*
D24*
X710000Y-460000D02*
D03*
X760000D02*
D03*
D25*
X660000D02*
D03*
D26*
X75000Y-184600D02*
D03*
Y-314600D02*
D03*
X875000Y-360400D02*
D03*
Y-230400D02*
D03*
D27*
X75000Y-235400D02*
D03*
Y-365400D02*
D03*
X110400Y-455000D02*
D03*
X240400D02*
D03*
X370400D02*
D03*
X500400D02*
D03*
X890400D02*
D03*
X875000Y-309600D02*
D03*
Y-179600D02*
D03*
X839600Y-90000D02*
D03*
X709600D02*
D03*
X579600D02*
D03*
X449600D02*
D03*
X319600D02*
D03*
X189600D02*
D03*
X59600D02*
D03*
D28*
Y-455000D02*
D03*
X189600D02*
D03*
X319600D02*
D03*
X449600D02*
D03*
X839600D02*
D03*
X890400Y-90000D02*
D03*
X760400D02*
D03*
X630400D02*
D03*
X500400D02*
D03*
X370400D02*
D03*
X240400D02*
D03*
X110400D02*
D03*
M02*
